<svg xmlns="http://www.w3.org/2000/svg" viewBox="0 0 16 16" width="16" height="16" shape-rendering="crispEdges">
  <path fill="#140C1C" d="M2 0h3v1h-3zM6 0h4v1h-4zM11 0h3v1h-3zM1 1h1v1h-1zM5 1h6v1h-6zM14 1h1v1h-1zM1 2h1v1h-1zM3 2h1v1h-1zM5 2h6v1h-6zM12 2h1v1h-1zM14 2h1v1h-1zM1 3h1v1h-1zM4 3h8v1h-8zM14 3h1v1h-1zM2 4h3v1h-3zM11 4h3v1h-3zM2 5h2v1h-2zM12 5h2v1h-2zM1 6h1v1h-1zM3 6h1v1h-1zM5 6h1v1h-1zM10 6h1v1h-1zM12 6h1v1h-1zM14 6h1v1h-1zM1 7h1v1h-1zM3 7h1v1h-1zM5 7h1v1h-1zM10 7h1v1h-1zM12 7h1v1h-1zM14 7h1v1h-1zM2 8h1v1h-1zM7 8h2v1h-2zM13 8h1v1h-1zM2 9h1v1h-1zM7 9h2v1h-2zM13 9h1v1h-1zM3 10h1v1h-1zM7 10h2v1h-2zM12 10h1v1h-1zM1 11h14v1h-14zM0 12h1v1h-1zM3 12h2v1h-2zM11 12h2v1h-2zM15 12h1v1h-1zM0 13h1v1h-1zM3 13h1v1h-1zM12 13h1v1h-1zM15 13h1v1h-1zM1 14h14v1h-14zM2 15h3v1h-3zM7 15h2v1h-2zM11 15h3v1h-3z"/>
  <path fill="#DEEED6" d="M2 1h3v1h-3zM11 1h3v1h-3zM2 2h1v1h-1zM4 2h1v1h-1zM11 2h1v1h-1zM13 2h1v1h-1zM2 3h2v1h-2zM12 3h2v1h-2zM5 15h2v1h-2zM9 15h2v1h-2z"/>
  <path fill="#D04648" d="M5 4h1v1h-1zM10 4h1v1h-1zM4 5h1v1h-1zM11 5h1v1h-1zM2 6h1v1h-1zM13 6h1v1h-1zM2 7h1v1h-1zM13 7h1v1h-1zM3 8h1v1h-1zM12 8h1v1h-1zM3 9h1v1h-1zM12 9h1v1h-1zM4 10h1v1h-1zM11 10h1v1h-1zM2 12h1v1h-1zM13 12h1v1h-1z"/>
  <path fill="#D2AA99" d="M6 4h4v1h-4zM5 5h6v1h-6zM4 6h1v1h-1zM6 6h4v1h-4zM11 6h1v1h-1zM4 7h1v1h-1zM6 7h4v1h-4zM11 7h1v1h-1zM4 8h3v1h-3zM9 8h3v1h-3zM4 9h3v1h-3zM9 9h3v1h-3zM5 10h2v1h-2zM9 10h2v1h-2zM1 12h1v1h-1zM14 12h1v1h-1zM1 13h2v1h-2zM13 13h2v1h-2z"/>
  <path fill="#597DCE" d="M5 12h6v1h-6zM4 13h8v1h-8z"/>
</svg>
