<svg xmlns="http://www.w3.org/2000/svg" viewBox="0 0 16 16" width="16" height="16" shape-rendering="crispEdges">
  <path fill="#140C1C" d="M5 1h6v1h-6zM4 2h1v1h-1zM11 2h1v1h-1zM3 3h1v1h-1zM12 3h1v1h-1zM2 4h1v1h-1zM13 4h1v1h-1zM2 5h1v1h-1zM13 5h1v1h-1zM2 6h1v1h-1zM7 6h1v1h-1zM9 6h1v1h-1zM13 6h1v1h-1zM2 7h1v1h-1zM13 7h1v1h-1zM2 8h1v1h-1zM5 8h6v1h-6zM13 8h1v1h-1zM1 9h1v1h-1zM6 9h5v1h-5zM14 9h1v1h-1zM0 10h1v1h-1zM15 10h1v1h-1zM0 11h1v1h-1zM15 11h1v1h-1zM0 12h1v1h-1zM3 12h1v1h-1zM12 12h1v1h-1zM15 12h1v1h-1zM1 13h2v1h-2zM13 13h2v1h-2zM1 14h4v1h-4zM6 14h4v1h-4zM11 14h4v1h-4zM2 15h12v1h-12z"/>
  <path fill="#757161" d="M5 2h6v1h-6zM4 3h2v1h-2zM10 3h2v1h-2zM3 4h2v1h-2zM11 4h2v1h-2zM3 5h2v1h-2zM11 5h2v1h-2zM3 6h2v1h-2zM11 6h2v1h-2zM3 7h1v1h-1zM11 7h2v1h-2zM3 8h1v1h-1zM12 8h1v1h-1zM2 9h3v1h-3zM12 9h2v1h-2zM1 10h4v1h-4zM11 10h4v1h-4zM1 11h4v1h-4zM11 11h4v1h-4zM1 12h2v1h-2zM4 12h1v1h-1zM11 12h1v1h-1zM13 12h2v1h-2zM3 13h2v1h-2zM11 13h2v1h-2zM5 14h1v1h-1zM10 14h1v1h-1z"/>
  <path fill="#DEEED6" d="M6 3h4v1h-4zM5 4h6v1h-6zM5 5h6v1h-6zM5 6h2v1h-2zM8 6h1v1h-1zM10 6h1v1h-1zM5 10h1v1h-1zM5 11h6v1h-6zM5 12h6v1h-6z"/>
  <path fill="#D04648" d="M4 7h7v1h-7zM4 8h1v1h-1zM11 8h1v1h-1zM5 9h1v1h-1zM11 9h1v1h-1zM6 10h5v1h-5z"/>
  <path fill="#6DC2CA" d="M5 13h6v1h-6z"/>
</svg>
