<svg xmlns="http://www.w3.org/2000/svg" viewBox="0 0 16 16" width="16" height="16" shape-rendering="crispEdges">
  <path fill="#140C1C" d="M4 1h8v1h-8zM3 2h1v1h-1zM12 2h1v1h-1zM2 3h1v1h-1zM4 3h1v1h-1zM11 3h1v1h-1zM13 3h1v1h-1zM1 4h1v1h-1zM4 4h2v1h-2zM10 4h2v1h-2zM14 4h1v1h-1zM0 5h1v1h-1zM4 5h3v1h-3zM9 5h3v1h-3zM15 5h1v1h-1zM0 6h1v1h-1zM15 6h1v1h-1zM0 7h1v1h-1zM3 7h2v1h-2zM6 7h4v1h-4zM11 7h2v1h-2zM15 7h1v1h-1zM0 8h1v1h-1zM3 8h10v1h-10zM15 8h1v1h-1zM1 9h1v1h-1zM3 9h10v1h-10zM14 9h1v1h-1zM1 10h2v1h-2zM4 10h3v1h-3zM8 10h4v1h-4zM13 10h2v1h-2zM0 11h1v1h-1zM15 11h1v1h-1zM1 12h3v1h-3zM5 12h1v1h-1zM12 12h3v1h-3zM3 13h1v1h-1zM5 13h1v1h-1zM10 13h1v1h-1zM12 13h1v1h-1zM4 14h8v1h-8zM3 15h4v1h-4zM9 15h4v1h-4z"/>
  <path fill="#854C30" d="M4 2h1v1h-1zM11 2h1v1h-1zM3 3h1v1h-1zM12 3h1v1h-1zM2 4h1v1h-1zM13 4h1v1h-1zM1 5h1v1h-1zM14 5h1v1h-1zM1 6h1v1h-1zM14 6h1v1h-1zM1 7h1v1h-1zM14 7h1v1h-1zM1 8h2v1h-2zM13 8h2v1h-2zM2 9h1v1h-1zM13 9h1v1h-1zM3 10h1v1h-1zM12 10h1v1h-1zM4 11h2v1h-2zM10 11h2v1h-2z"/>
  <path fill="#D27D2C" d="M5 2h1v1h-1zM10 2h1v1h-1zM3 4h1v1h-1zM12 4h1v1h-1zM2 5h2v1h-2zM12 5h2v1h-2zM2 6h3v1h-3zM11 6h3v1h-3zM2 7h1v1h-1zM5 7h1v1h-1zM10 7h1v1h-1zM13 7h1v1h-1zM7 10h1v1h-1zM6 11h4v1h-4z"/>
  <path fill="#DAD45E" d="M6 2h4v1h-4zM5 3h6v1h-6zM6 4h4v1h-4zM7 5h2v1h-2zM5 6h6v1h-6zM1 11h3v1h-3zM12 11h3v1h-3zM7 15h2v1h-2z"/>
  <path fill="#4E4A4E" d="M4 12h1v1h-1zM6 12h1v1h-1zM9 12h3v1h-3zM4 13h1v1h-1zM6 13h1v1h-1zM9 13h1v1h-1zM11 13h1v1h-1z"/>
  <path fill="#757161" d="M7 12h2v1h-2zM7 13h2v1h-2z"/>
</svg>
