<svg xmlns="http://www.w3.org/2000/svg" viewBox="0 0 16 16" width="16" height="16" shape-rendering="crispEdges">
  <path fill="#140C1C" d="M9 0h1v1h-1zM8 1h1v1h-1zM10 1h1v1h-1zM4 2h5v1h-5zM10 2h2v1h-2zM3 3h1v1h-1zM8 3h1v1h-1zM10 3h1v1h-1zM12 3h1v1h-1zM2 4h1v1h-1zM8 4h1v1h-1zM10 4h1v1h-1zM13 4h1v1h-1zM1 5h1v1h-1zM14 5h1v1h-1zM0 6h1v1h-1zM15 6h1v1h-1zM0 7h1v1h-1zM2 7h12v1h-12zM15 7h1v1h-1zM0 8h1v1h-1zM2 8h2v1h-2zM7 8h2v1h-2zM12 8h2v1h-2zM15 8h1v1h-1zM0 9h1v1h-1zM2 9h12v1h-12zM15 9h1v1h-1zM0 10h1v1h-1zM15 10h1v1h-1zM1 11h14v1h-14zM4 12h1v1h-1zM11 12h1v1h-1zM3 13h2v1h-2zM11 13h2v1h-2zM3 14h3v1h-3zM7 14h2v1h-2zM10 14h3v1h-3zM4 15h8v1h-8z"/>
  <path fill="#DEEED6" d="M9 1h1v1h-1zM6 6h4v1h-4zM6 10h4v1h-4z"/>
  <path fill="#8595A1" d="M9 2h1v1h-1zM9 3h1v1h-1zM9 4h1v1h-1zM4 6h2v1h-2zM10 6h2v1h-2zM4 10h2v1h-2zM10 10h2v1h-2zM6 14h1v1h-1zM9 14h1v1h-1z"/>
  <path fill="#D04648" d="M4 3h3v1h-3zM11 3h1v1h-1zM3 4h4v1h-4zM11 4h2v1h-2zM2 5h4v1h-4zM10 5h4v1h-4zM1 6h1v1h-1zM14 6h1v1h-1zM1 10h1v1h-1zM14 10h1v1h-1z"/>
  <path fill="#D27D2C" d="M7 3h1v1h-1zM7 4h1v1h-1zM6 5h4v1h-4zM2 6h2v1h-2zM12 6h2v1h-2zM1 7h1v1h-1zM14 7h1v1h-1zM1 8h1v1h-1zM14 8h1v1h-1zM1 9h1v1h-1zM14 9h1v1h-1zM2 10h2v1h-2zM12 10h2v1h-2z"/>
  <path fill="#DAD45E" d="M4 8h3v1h-3zM9 8h3v1h-3z"/>
  <path fill="#4E4A4E" d="M5 12h6v1h-6z"/>
  <path fill="#757161" d="M5 13h6v1h-6z"/>
</svg>
